<svg width="22" height="19" viewBox="0 0 22 19" fill="none" xmlns="http://www.w3.org/2000/svg">
<path d="M9.29193 0C9.51967 0.71161 9.63354 1.30461 9.63354 1.77902C9.63354 2.20599 9.56522 2.77528 9.42857 3.48689C6.37681 3.48689 4.85093 5.12359 4.85093 8.397C4.85093 9.58302 5.44306 10.2472 6.62733 10.3895C8.35818 10.5318 9.2236 11.6941 9.2236 13.8764C9.2236 15.5368 8.83644 16.8177 8.06211 17.7191C7.33333 18.573 5.98965 19 4.03106 19C1.34369 19 0 17.1024 0 13.3071C0 9.51186 0.728779 6.35705 2.18634 3.84269C3.64389 1.28089 6.01242 0 9.29193 0ZM21.6584 0C21.8861 0.71161 22 1.30461 22 1.77902C22 2.20599 21.9317 2.77528 21.795 3.48689C18.7433 3.48689 17.2174 5.12359 17.2174 8.397C17.2174 9.58302 17.8095 10.2472 18.9938 10.3895C20.7246 10.5318 21.5901 11.6941 21.5901 13.8764C21.5901 15.5368 21.2029 16.8177 20.4286 17.7191C19.6998 18.573 18.3561 19 16.3975 19C13.7101 19 12.3665 17.1024 12.3665 13.3071C12.3665 9.51186 13.0952 6.35705 14.5528 3.84269C16.0104 1.28089 18.3789 0 21.6584 0Z" fill="#FF9965"/>
</svg>
