<svg width="24" height="25" viewBox="0 0 24 25" fill="none" xmlns="http://www.w3.org/2000/svg">
<path d="M12 0.5C5.373 0.5 0 5.873 0 12.5C0 19.127 5.373 24.5 12 24.5C18.627 24.5 24 19.127 24 12.5C24 5.873 18.627 0.5 12 0.5ZM14.218 19.116C13.864 19.185 13.75 18.967 13.75 18.78V16.859C13.75 16.206 13.521 15.78 13.269 15.563C14.829 15.39 16.467 14.798 16.467 12.109C16.467 11.344 16.194 10.72 15.746 10.23C15.818 10.053 16.058 9.341 15.677 8.377C15.677 8.377 15.09 8.189 13.754 9.094C13.193 8.94 12.595 8.863 12 8.86C11.405 8.863 10.807 8.94 10.247 9.095C8.91 8.19 8.322 8.378 8.322 8.378C7.943 9.342 8.182 10.054 8.255 10.23C7.807 10.72 7.533 11.344 7.533 12.109C7.533 14.791 9.167 15.391 10.722 15.568C10.522 15.743 10.341 16.051 10.278 16.504C9.878 16.683 8.865 16.992 8.241 15.922C8.241 15.922 7.871 15.25 7.168 15.2C7.168 15.2 6.485 15.191 7.12 15.626C7.12 15.626 7.58 15.841 7.897 16.65C7.897 16.65 8.302 17.9 10.25 17.476V18.779C10.25 18.964 10.137 19.181 9.788 19.116C7.006 18.191 5 15.567 5 12.475C5 8.608 8.135 5.475 12 5.475C15.865 5.475 19 8.608 19 12.475C19 15.566 16.997 18.19 14.218 19.116Z" fill="#FFF4F0"/>
</svg>
