<svg width="24" height="25" viewBox="0 0 24 25" fill="none" xmlns="http://www.w3.org/2000/svg">
<path d="M14.238 15.848C14.323 15.932 14.323 16.069 14.238 16.154C13.773 16.616 13.044 16.841 12.007 16.841L11.999 16.839L11.991 16.841C10.955 16.841 10.225 16.616 9.76 16.153C9.675 16.069 9.675 15.932 9.76 15.848C9.844 15.764 9.982 15.764 10.067 15.848C10.446 16.225 11.075 16.409 11.991 16.409L11.999 16.411L12.007 16.409C12.922 16.409 13.551 16.225 13.931 15.848C14.016 15.764 14.154 15.764 14.238 15.848ZM10.798 13.43C10.798 12.923 10.384 12.511 9.876 12.511C9.367 12.511 8.953 12.923 8.953 13.43C8.953 13.936 9.367 14.348 9.876 14.348C10.384 14.349 10.798 13.937 10.798 13.43ZM24 12.5C24 19.127 18.627 24.5 12 24.5C5.373 24.5 0 19.127 0 12.5C0 5.873 5.373 0.5 12 0.5C18.627 0.5 24 5.873 24 12.5ZM19 12.371C19 11.52 18.305 10.828 17.45 10.828C17.033 10.828 16.655 10.995 16.376 11.263C15.32 10.568 13.891 10.126 12.31 10.069L13.175 7.345L15.518 7.894L15.515 7.928C15.515 8.624 16.084 9.19 16.783 9.19C17.482 9.19 18.05 8.624 18.05 7.928C18.05 7.232 17.482 6.666 16.783 6.666C16.246 6.666 15.789 7.001 15.604 7.47L13.079 6.878C12.969 6.851 12.856 6.915 12.822 7.023L11.857 10.061C10.201 10.081 8.702 10.527 7.599 11.242C7.322 10.987 6.955 10.827 6.549 10.827C5.695 10.828 5 11.52 5 12.371C5 12.937 5.311 13.427 5.768 13.696C5.738 13.86 5.718 14.027 5.718 14.196C5.718 16.477 8.523 18.333 11.971 18.333C15.419 18.333 18.224 16.477 18.224 14.196C18.224 14.036 18.207 13.879 18.18 13.724C18.666 13.463 19 12.958 19 12.371ZM14.128 12.512C13.619 12.512 13.206 12.924 13.206 13.431C13.206 13.937 13.62 14.349 14.128 14.349C14.636 14.349 15.05 13.937 15.05 13.431C15.05 12.924 14.637 12.512 14.128 12.512Z" fill="#FFF4F0"/>
</svg>
