<svg width="547" height="111" viewBox="0 0 547 111" fill="none" xmlns="http://www.w3.org/2000/svg">
<path d="M142.871 49.2031C142.871 22.029 117.762 0 86.7887 0L56.0829 0C25.1093 0 6.10352e-05 22.029 6.10352e-05 49.2031V110.215H86.7887C117.762 110.215 142.871 88.186 142.871 61.0119V49.2031Z" fill="url(#paint0_linear_403_6290)"/>
<path d="M99.8037 64.1826C97.1882 64.1826 94.9947 63.2967 93.2229 61.525C91.4512 59.7533 90.5653 57.5597 90.5653 54.9443C90.5653 52.3288 91.4512 50.1353 93.2229 48.3635C94.9947 46.5918 97.1882 45.7059 99.8037 45.7059C102.335 45.7059 104.486 46.5918 106.258 48.3635C108.03 50.1353 108.915 52.3288 108.915 54.9443C108.915 57.5597 108.03 59.7533 106.258 61.525C104.486 63.2967 102.335 64.1826 99.8037 64.1826Z" fill="#FFF4F0"/>
<path d="M69.278 64.1826C66.6626 64.1826 64.469 63.2967 62.6973 61.525C60.9255 59.7533 60.0397 57.5597 60.0397 54.9443C60.0397 52.3288 60.9255 50.1353 62.6973 48.3635C64.469 46.5918 66.6626 45.7059 69.278 45.7059C71.8091 45.7059 73.9605 46.5918 75.7322 48.3635C77.504 50.1353 78.3898 52.3288 78.3898 54.9443C78.3898 57.5597 77.504 59.7533 75.7322 61.525C73.9605 63.2967 71.8091 64.1826 69.278 64.1826Z" fill="#FFF4F0"/>
<path d="M38.7518 64.1826C36.1364 64.1826 33.9428 63.2967 32.171 61.525C30.3993 59.7533 29.5134 57.5597 29.5134 54.9443C29.5134 52.3288 30.3993 50.1353 32.171 48.3635C33.9428 46.5918 36.1364 45.7059 38.7518 45.7059C41.2828 45.7059 43.4342 46.5918 45.206 48.3635C46.9777 50.1353 47.8636 52.3288 47.8636 54.9443C47.8636 57.5597 46.9777 59.7533 45.206 61.525C43.4342 63.2967 41.2828 64.1826 38.7518 64.1826Z" fill="#FFF4F0"/>
<path d="M529.414 89.1346L512.173 67.4924V89.1346H499.334V21.2734H512.173V59.8809L529.23 38.3304H545.92L523.544 63.8242L546.104 89.1346H529.414Z" fill="white"/>
<path d="M465.134 89.9599C460.243 89.9599 455.841 88.89 451.928 86.7502C448.016 84.5493 444.928 81.4619 442.666 77.4881C440.465 73.5142 439.365 68.929 439.365 63.7324C439.365 58.5358 440.496 53.9506 442.758 49.9767C445.081 46.0029 448.23 42.9461 452.203 40.8063C456.177 38.6054 460.61 37.5049 465.5 37.5049C470.391 37.5049 474.824 38.6054 478.798 40.8063C482.771 42.9461 485.889 46.0029 488.151 49.9767C490.475 53.9506 491.636 58.5358 491.636 63.7324C491.636 68.929 490.444 73.5142 488.06 77.4881C485.737 81.4619 482.558 84.5493 478.523 86.7502C474.549 88.89 470.086 89.9599 465.134 89.9599ZM465.134 78.7719C467.457 78.7719 469.627 78.2217 471.645 77.1212C473.723 75.9597 475.374 74.2478 476.597 71.9858C477.819 69.7238 478.431 66.9726 478.431 63.7324C478.431 58.9026 477.147 55.2039 474.579 52.6362C472.073 50.0073 468.985 48.6929 465.317 48.6929C461.649 48.6929 458.562 50.0073 456.055 52.6362C453.609 55.2039 452.387 58.9026 452.387 63.7324C452.387 68.5622 453.579 72.2915 455.963 74.9203C458.409 77.4881 461.466 78.7719 465.134 78.7719Z" fill="white"/>
<path d="M423.688 48.8763V73.4531C423.688 75.1649 424.086 76.4182 424.881 77.213C425.736 77.9466 427.143 78.3134 429.099 78.3134H435.06V89.1346H426.99C416.169 89.1346 410.758 83.8768 410.758 73.3614V48.8763H404.706V38.3303H410.758V25.7668H423.688V38.3303H435.06V48.8763H423.688Z" fill="white"/>
<path d="M345.008 63.5491C345.008 58.4137 346.016 53.859 348.034 49.8852C350.112 45.9113 352.925 42.8545 356.471 40.7147C360.017 38.5749 363.96 37.5051 368.3 37.5051C371.602 37.5051 374.75 38.2387 377.746 39.706C380.742 41.1121 383.126 43.0073 384.899 45.3916V21.2734H397.921V89.1346H384.899V81.6149C383.309 84.1215 381.078 86.139 378.205 87.6674C375.331 89.1958 371.999 89.96 368.209 89.96C363.929 89.96 360.017 88.8595 356.471 86.6586C352.925 84.4577 350.112 81.3703 348.034 77.3965C346.016 73.3615 345.008 68.7457 345.008 63.5491ZM384.991 63.7325C384.991 60.6146 384.379 57.9551 383.157 55.7542C381.934 53.4922 380.283 51.7804 378.205 50.6188C376.126 49.3961 373.894 48.7847 371.51 48.7847C369.126 48.7847 366.925 49.3655 364.907 50.5271C362.89 51.6887 361.239 53.4005 359.955 55.6625C358.733 57.8634 358.121 60.4923 358.121 63.5491C358.121 66.6059 358.733 69.2959 359.955 71.6191C361.239 73.8811 362.89 75.6235 364.907 76.8462C366.986 78.069 369.187 78.6803 371.51 78.6803C373.894 78.6803 376.126 78.0995 378.205 76.938C380.283 75.7152 381.934 74.0034 383.157 71.8025C384.379 69.5405 384.991 66.8505 384.991 63.7325Z" fill="white"/>
<path d="M314.108 89.9599C309.217 89.9599 304.815 88.89 300.902 86.7502C296.99 84.5493 293.902 81.4619 291.64 77.4881C289.439 73.5142 288.339 68.929 288.339 63.7324C288.339 58.5358 289.47 53.9506 291.732 49.9767C294.055 46.0029 297.204 42.9461 301.178 40.8063C305.151 38.6054 309.584 37.5049 314.475 37.5049C319.366 37.5049 323.798 38.6054 327.772 40.8063C331.746 42.9461 334.864 46.0029 337.126 49.9767C339.449 53.9506 340.611 58.5358 340.611 63.7324C340.611 68.929 339.418 73.5142 337.034 77.4881C334.711 81.4619 331.532 84.5493 327.497 86.7502C323.523 88.89 319.06 89.9599 314.108 89.9599ZM314.108 78.7719C316.431 78.7719 318.601 78.2217 320.619 77.1212C322.698 75.9597 324.348 74.2478 325.571 71.9858C326.794 69.7238 327.405 66.9726 327.405 63.7324C327.405 58.9026 326.121 55.2039 323.553 52.6362C321.047 50.0073 317.96 48.6929 314.291 48.6929C310.623 48.6929 307.536 50.0073 305.029 52.6362C302.584 55.2039 301.361 58.9026 301.361 63.7324C301.361 68.5622 302.553 72.2915 304.937 74.9203C307.383 77.4881 310.44 78.7719 314.108 78.7719Z" fill="white"/>
<path d="M257.348 89.9599C252.457 89.9599 248.055 88.89 244.143 86.7502C240.23 84.5493 237.142 81.4619 234.88 77.4881C232.68 73.5142 231.579 68.929 231.579 63.7324C231.579 58.5358 232.71 53.9506 234.972 49.9767C237.295 46.0029 240.444 42.9461 244.418 40.8063C248.392 38.6054 252.824 37.5049 257.715 37.5049C262.606 37.5049 267.038 38.6054 271.012 40.8063C274.986 42.9461 278.104 46.0029 280.366 49.9767C282.689 53.9506 283.851 58.5358 283.851 63.7324C283.851 68.929 282.658 73.5142 280.274 77.4881C277.951 81.4619 274.772 84.5493 270.737 86.7502C266.763 88.89 262.3 89.9599 257.348 89.9599ZM257.348 78.7719C259.671 78.7719 261.842 78.2217 263.859 77.1212C265.938 75.9597 267.588 74.2478 268.811 71.9858C270.034 69.7238 270.645 66.9726 270.645 63.7324C270.645 58.9026 269.361 55.2039 266.794 52.6362C264.287 50.0073 261.2 48.6929 257.531 48.6929C253.863 48.6929 250.776 50.0073 248.269 52.6362C245.824 55.2039 244.601 58.9026 244.601 63.7324C244.601 68.5622 245.793 72.2915 248.178 74.9203C250.623 77.4881 253.68 78.7719 257.348 78.7719Z" fill="white"/>
<path d="M210.686 44.3828C209.219 41.6928 207.202 39.6447 204.634 38.2386C202.066 36.8324 199.07 36.1294 195.647 36.1294C191.856 36.1294 188.494 36.9853 185.559 38.6971C182.625 40.4089 180.332 42.8544 178.681 46.0334C177.031 49.2125 176.205 52.8807 176.205 57.038C176.205 61.3175 177.031 65.0468 178.681 68.2259C180.393 71.405 182.747 73.8504 185.743 75.5623C188.738 77.2741 192.223 78.13 196.197 78.13C201.088 78.13 205.092 76.8461 208.21 74.2784C211.328 71.6495 213.376 68.0119 214.354 63.3656H192.345V53.5532H227.01V64.7411C226.154 69.2041 224.32 73.3308 221.507 77.1212C218.695 80.9117 215.058 83.9685 210.595 86.2917C206.193 88.5537 201.241 89.6847 195.738 89.6847C189.564 89.6847 183.97 88.3092 178.957 85.558C174.005 82.7458 170.092 78.8636 167.218 73.9116C164.406 68.9595 163 63.335 163 57.038C163 50.7409 164.406 45.1164 167.218 40.1644C170.092 35.1512 174.005 31.269 178.957 28.5179C183.97 25.7056 189.533 24.2995 195.647 24.2995C202.861 24.2995 209.127 26.0725 214.446 29.6184C219.765 33.1031 223.433 38.0246 225.451 44.3828H210.686Z" fill="white"/>
<defs>
<linearGradient id="paint0_linear_403_6290" x1="86.6135" y1="77.1277" x2="50.3264" y2="-15.9651" gradientUnits="userSpaceOnUse">
<stop stop-color="#FF9965"/>
<stop offset="1" stop-color="#DF682B"/>
</linearGradient>
</defs>
</svg>
