<svg width="24" height="25" viewBox="0 0 24 25" fill="none" xmlns="http://www.w3.org/2000/svg">
<path fill-rule="evenodd" clip-rule="evenodd" d="M12 0.5C5.374 0.5 0 5.872 0 12.5C0 19.127 5.374 24.5 12 24.5C18.627 24.5 24 19.127 24 12.5C24 5.872 18.627 0.5 12 0.5ZM15.248 18.848L14.877 17.553L15.773 18.386L16.62 19.17L18.125 20.5V7.942C18.125 7.144 17.481 6.5 16.69 6.5H7.31C6.519 6.5 5.875 7.144 5.875 7.942V17.406C5.875 18.204 6.519 18.848 7.31 18.848H15.248ZM13.988 15.642L13.526 15.075C14.443 14.816 14.793 14.242 14.793 14.242C14.506 14.431 14.233 14.564 13.988 14.655C13.638 14.802 13.302 14.9 12.973 14.956C12.301 15.082 11.685 15.047 11.16 14.949C10.761 14.872 10.418 14.76 10.131 14.648C9.97 14.585 9.795 14.508 9.62 14.41L9.592 14.394L9.585 14.391L9.557 14.375L9.529 14.354L9.333 14.235C9.333 14.235 9.669 14.795 10.558 15.061L10.089 15.642C8.542 15.593 7.954 14.578 7.954 14.578C7.954 12.324 8.962 10.497 8.962 10.497C9.97 9.741 10.929 9.762 10.929 9.762L10.999 9.846C9.739 10.21 9.158 10.763 9.158 10.763L9.571 10.56C10.32 10.231 10.915 10.14 11.16 10.119L11.279 10.105C11.706 10.049 12.189 10.035 12.693 10.091C13.358 10.168 14.072 10.364 14.8 10.763C14.8 10.763 14.247 10.238 13.057 9.874L13.155 9.762C13.155 9.762 14.114 9.741 15.122 10.497C15.122 10.497 16.13 12.324 16.13 14.578C16.13 14.578 15.557 15.555 13.988 15.642ZM13.288 12.373C12.889 12.373 12.574 12.723 12.574 13.15C12.574 13.577 12.896 13.927 13.288 13.927C13.687 13.927 14.002 13.577 14.002 13.15C14.002 12.723 13.687 12.373 13.288 12.373ZM10.733 12.373C10.334 12.373 10.019 12.723 10.019 13.15C10.019 13.577 10.341 13.927 10.733 13.927C11.132 13.927 11.447 13.577 11.447 13.15C11.454 12.723 11.132 12.373 10.733 12.373Z" fill="#FFF4F0"/>
</svg>
