<svg width="136" height="29" viewBox="0 0 136 29" fill="none" xmlns="http://www.w3.org/2000/svg">
<path d="M35.5801 13.0296C35.5801 6.26222 29.327 0.776184 21.6134 0.776184L13.9666 0.776184C6.25299 0.776184 -0.000144958 6.26222 -0.000144958 13.0296V28.2238H21.6134C29.327 28.2238 35.5801 22.7378 35.5801 15.9704V13.0296Z" fill="url(#paint0_linear_403_3612)"/>
<path d="M24.8544 16.76C24.2031 16.76 23.6568 16.5394 23.2156 16.0982C22.7743 15.6569 22.5537 15.1107 22.5537 14.4593C22.5537 13.808 22.7743 13.2617 23.2156 12.8205C23.6568 12.3792 24.2031 12.1586 24.8544 12.1586C25.4847 12.1586 26.0205 12.3792 26.4617 12.8205C26.903 13.2617 27.1236 13.808 27.1236 14.4593C27.1236 15.1107 26.903 15.6569 26.4617 16.0982C26.0205 16.5394 25.4847 16.76 24.8544 16.76Z" fill="#FFF4F0"/>
<path d="M17.2528 16.76C16.6015 16.76 16.0552 16.5394 15.614 16.0982C15.1728 15.6569 14.9521 15.1107 14.9521 14.4593C14.9521 13.808 15.1728 13.2617 15.614 12.8205C16.0552 12.3792 16.6015 12.1586 17.2528 12.1586C17.8832 12.1586 18.4189 12.3792 18.8602 12.8205C19.3014 13.2617 19.522 13.808 19.522 14.4593C19.522 15.1107 19.3014 15.6569 18.8602 16.0982C18.4189 16.5394 17.8832 16.76 17.2528 16.76Z" fill="#FFF4F0"/>
<path d="M9.6503 16.76C8.99896 16.76 8.45268 16.5393 8.01145 16.0981C7.57022 15.6569 7.34961 15.1106 7.34961 14.4593C7.34961 13.8079 7.57022 13.2616 8.01145 12.8204C8.45268 12.3792 8.99896 12.1586 9.6503 12.1586C10.2806 12.1586 10.8164 12.3792 11.2576 12.8204C11.6989 13.2616 11.9195 13.8079 11.9195 14.4593C11.9195 15.1106 11.6989 15.6569 11.2576 16.0981C10.8164 16.5393 10.2806 16.76 9.6503 16.76Z" fill="#FFF4F0"/>
<path d="M131.844 22.9739L127.551 17.5842V22.9739H124.354V6.07391H127.551V15.6886L131.799 10.3217H135.955L130.383 16.6706L136.001 22.9739H131.844Z" fill="#27150C" class="text"/>
<path d="M115.836 23.1794C114.618 23.1794 113.522 22.9129 112.548 22.38C111.573 21.8319 110.804 21.0631 110.241 20.0734C109.693 19.0838 109.419 17.9419 109.419 16.6478C109.419 15.3536 109.701 14.2117 110.264 13.2221C110.842 12.2325 111.627 11.4712 112.616 10.9383C113.606 10.3902 114.71 10.1161 115.928 10.1161C117.146 10.1161 118.25 10.3902 119.239 10.9383C120.229 11.4712 121.005 12.2325 121.569 13.2221C122.147 14.2117 122.436 15.3536 122.436 16.6478C122.436 17.9419 122.14 19.0838 121.546 20.0734C120.967 21.0631 120.176 21.8319 119.171 22.38C118.181 22.9129 117.07 23.1794 115.836 23.1794ZM115.836 20.3932C116.415 20.3932 116.955 20.2561 117.458 19.9821C117.976 19.6928 118.387 19.2665 118.691 18.7032C118.996 18.1398 119.148 17.4547 119.148 16.6478C119.148 15.445 118.828 14.5238 118.189 13.8844C117.564 13.2297 116.796 12.9024 115.882 12.9024C114.969 12.9024 114.2 13.2297 113.575 13.8844C112.966 14.5238 112.662 15.445 112.662 16.6478C112.662 17.8505 112.959 18.7793 113.553 19.434C114.162 20.0734 114.923 20.3932 115.836 20.3932Z" fill="#27150C" class="text"/>
<path d="M105.515 12.9479V19.0685C105.515 19.4948 105.613 19.8069 105.811 20.0048C106.025 20.1875 106.375 20.2789 106.862 20.2789H108.346V22.9737H106.337C103.642 22.9737 102.294 21.6644 102.294 19.0456V12.9479H100.787V10.3216H102.294V7.19281H105.515V10.3216H108.346V12.9479H105.515Z" fill="#27150C" class="text"/>
<path d="M85.9209 16.6021C85.9209 15.3232 86.1721 14.1889 86.6745 13.1993C87.1922 12.2097 87.8926 11.4484 88.7756 10.9155C89.6587 10.3826 90.6407 10.1162 91.7217 10.1162C92.5439 10.1162 93.328 10.2989 94.074 10.6643C94.82 11.0145 95.4138 11.4865 95.8553 12.0802V6.07391H99.0983V22.9739H95.8553V21.1012C95.4595 21.7254 94.9038 22.2278 94.1882 22.6085C93.4726 22.9891 92.6428 23.1794 91.6989 23.1794C90.6331 23.1794 89.6587 22.9054 88.7756 22.3573C87.8926 21.8091 87.1922 21.0403 86.6745 20.0506C86.1721 19.0458 85.9209 17.8963 85.9209 16.6021ZM95.8782 16.6478C95.8782 15.8713 95.7259 15.209 95.4214 14.6609C95.1169 14.0976 94.7058 13.6713 94.1882 13.382C93.6705 13.0775 93.1148 12.9252 92.521 12.9252C91.9272 12.9252 91.3791 13.0699 90.8767 13.3592C90.3743 13.6484 89.9632 14.0747 89.6435 14.6381C89.339 15.1862 89.1867 15.8409 89.1867 16.6021C89.1867 17.3634 89.339 18.0333 89.6435 18.6119C89.9632 19.1752 90.3743 19.6091 90.8767 19.9136C91.3944 20.2181 91.9425 20.3704 92.521 20.3704C93.1148 20.3704 93.6705 20.2257 94.1882 19.9364C94.7058 19.6319 95.1169 19.2056 95.4214 18.6575C95.7259 18.0942 95.8782 17.4243 95.8782 16.6478Z" fill="#27150C" class="text"/>
<path d="M78.225 23.1794C77.007 23.1794 75.9108 22.9129 74.9364 22.38C73.962 21.8319 73.1931 21.0631 72.6298 20.0734C72.0817 19.0838 71.8076 17.9419 71.8076 16.6478C71.8076 15.3536 72.0893 14.2117 72.6526 13.2221C73.2312 12.2325 74.0153 11.4712 75.0049 10.9383C75.9945 10.3902 77.0984 10.1161 78.3164 10.1161C79.5344 10.1161 80.6382 10.3902 81.6279 10.9383C82.6175 11.4712 83.394 12.2325 83.9573 13.2221C84.5359 14.2117 84.8252 15.3536 84.8252 16.6478C84.8252 17.9419 84.5283 19.0838 83.9345 20.0734C83.3559 21.0631 82.5642 21.8319 81.5594 22.38C80.5697 22.9129 79.4583 23.1794 78.225 23.1794ZM78.225 20.3932C78.8036 20.3932 79.3441 20.2561 79.8465 19.9821C80.3642 19.6928 80.7753 19.2665 81.0798 18.7032C81.3843 18.1398 81.5365 17.4547 81.5365 16.6478C81.5365 15.445 81.2168 14.5238 80.5773 13.8844C79.9531 13.2297 79.1842 12.9024 78.2707 12.9024C77.3572 12.9024 76.5883 13.2297 75.9641 13.8844C75.3551 14.5238 75.0506 15.445 75.0506 16.6478C75.0506 17.8505 75.3475 18.7793 75.9413 19.434C76.5503 20.0734 77.3115 20.3932 78.225 20.3932Z" fill="#27150C" class="text"/>
<path d="M64.0903 23.1794C62.8723 23.1794 61.776 22.9129 60.8016 22.38C59.8272 21.8319 59.0583 21.0631 58.495 20.0734C57.9469 19.0838 57.6729 17.9419 57.6729 16.6478C57.6729 15.3536 57.9545 14.2117 58.5178 13.2221C59.0964 12.2325 59.8805 11.4712 60.8701 10.9383C61.8598 10.3902 62.9636 10.1161 64.1816 10.1161C65.3996 10.1161 66.5035 10.3902 67.4931 10.9383C68.4827 11.4712 69.2592 12.2325 69.8226 13.2221C70.4011 14.2117 70.6904 15.3536 70.6904 16.6478C70.6904 17.9419 70.3935 19.0838 69.7997 20.0734C69.2212 21.0631 68.4294 21.8319 67.4246 22.38C66.4349 22.9129 65.3235 23.1794 64.0903 23.1794ZM64.0903 20.3932C64.6688 20.3932 65.2093 20.2561 65.7118 19.9821C66.2294 19.6928 66.6405 19.2665 66.945 18.7032C67.2495 18.1398 67.4017 17.4547 67.4017 16.6478C67.4017 15.445 67.082 14.5238 66.4426 13.8844C65.8183 13.2297 65.0495 12.9024 64.1359 12.9024C63.2224 12.9024 62.4536 13.2297 61.8293 13.8844C61.2203 14.5238 60.9158 15.445 60.9158 16.6478C60.9158 17.8505 61.2127 18.7793 61.8065 19.434C62.4155 20.0734 63.1768 20.3932 64.0903 20.3932Z" fill="#27150C" class="text"/>
<path d="M52.4694 11.8291C52.104 11.1591 51.6016 10.6491 50.9621 10.2989C50.3226 9.94874 49.5766 9.77365 48.724 9.77365C47.78 9.77365 46.9427 9.9868 46.2118 10.4131C45.481 10.8394 44.9101 11.4484 44.499 12.2401C44.0879 13.0318 43.8824 13.9454 43.8824 14.9807C43.8824 16.0464 44.0879 16.9752 44.499 17.7669C44.9253 18.5586 45.5115 19.1676 46.2575 19.5939C47.0036 20.0202 47.8714 20.2334 48.861 20.2334C50.079 20.2334 51.0763 19.9136 51.8528 19.2742C52.6293 18.6195 53.1393 17.7136 53.3829 16.5565H47.9018V14.1128H56.5345V16.899C56.3214 18.0105 55.8646 19.0382 55.1643 19.9821C54.4639 20.9261 53.558 21.6874 52.4466 22.2659C51.3503 22.8293 50.1171 23.1109 48.7468 23.1109C47.2091 23.1109 45.816 22.7683 44.5675 22.0832C43.3343 21.3829 42.3599 20.4161 41.6443 19.1828C40.9439 17.9496 40.5938 16.5489 40.5938 14.9807C40.5938 13.4125 40.9439 12.0118 41.6443 10.7785C42.3599 9.53005 43.3343 8.56325 44.5675 7.87811C45.816 7.17776 47.2015 6.82758 48.724 6.82758C50.5206 6.82758 52.0812 7.26911 53.4057 8.15217C54.7303 9.02 55.6438 10.2456 56.1463 11.8291H52.4694Z" fill="#27150C" class="text"/>
<defs>
<linearGradient id="paint0_linear_403_3612" x1="21.5698" y1="19.9838" x2="12.533" y2="-3.19971" gradientUnits="userSpaceOnUse">
<stop stop-color="#FF9965"/>
<stop offset="1" stop-color="#DF682B"/>
</linearGradient>
</defs>
</svg>
