<svg width="24" height="25" viewBox="0 0 24 25" fill="none" xmlns="http://www.w3.org/2000/svg">
<path d="M12 0.5C5.373 0.5 0 5.873 0 12.5C0 19.127 5.373 24.5 12 24.5C18.627 24.5 24 19.127 24 12.5C24 5.873 18.627 0.5 12 0.5ZM18.066 10.145C18.249 14.185 15.236 18.689 9.902 18.689C8.28 18.689 6.771 18.213 5.5 17.398C7.024 17.578 8.545 17.154 9.752 16.209C8.496 16.186 7.435 15.355 7.068 14.214C7.519 14.3 7.963 14.275 8.366 14.165C6.985 13.887 6.031 12.643 6.062 11.312C6.45 11.527 6.892 11.656 7.363 11.671C6.084 10.816 5.722 9.127 6.474 7.836C7.89 9.574 10.007 10.717 12.394 10.837C11.975 9.041 13.338 7.31 15.193 7.31C16.018 7.31 16.765 7.659 17.289 8.217C17.943 8.089 18.559 7.849 19.113 7.52C18.898 8.191 18.443 8.753 17.85 9.109C18.431 9.039 18.985 8.885 19.499 8.656C19.115 9.234 18.629 9.74 18.066 10.145Z" fill="#FFF4F0"/>
</svg>
